# Blender 3.3.1
# www.blender.org
mtllib untitled.mtl
o Cube
v -1.000000 -1.000000 1.000000
v -1.000000 1.000000 1.000000
v -1.000000 -1.000000 -1.000000
v -1.000000 1.000000 -1.000000
v 1.000000 -1.000000 1.000000
v 1.000000 1.000000 1.000000
v 1.000000 -1.000000 -1.000000
v 1.000000 1.000000 -1.000000
vn -0.5774 -0.5774 0.5774
vn -0.5774 0.5774 0.5774
vn -0.5774 0.5774 -0.5774
vn -0.5774 -0.5774 -0.5774
vn 0.5774 0.5774 -0.5774
vn 0.5774 -0.5774 -0.5774
vn 0.5774 0.5774 0.5774
vn 0.5774 -0.5774 0.5774
vt 0.000000 0.000000
vt 0.000000 1.000000
vt 1.000000 1.000000
vt 1.000000 0.000000
s 1
f 1/1/1 2/2/2 4/3/3 3/4/4
f 3/1/4 4/2/3 8/3/5 7/4/6
f 7/1/6 8/2/5 6/3/7 5/4/8
f 5/1/8 6/2/7 2/3/2 1/4/1
f 3/1/4 7/2/6 5/3/8 1/4/1
f 8/1/5 4/2/3 2/3/2 6/4/7
